<svg xmlns="http://www.w3.org/2000/svg" viewBox="515.4 130.2 372.8 325.4" width="746" height="651">
<defs>
<linearGradient id="g0" gradientUnits="userSpaceOnUse" x1="796.0" y1="187.1" x2="729.1" y2="287.9"><stop offset="0" stop-color="#43EDD6"/><stop offset="1" stop-color="#1373B3"/></linearGradient>
<linearGradient id="g1" gradientUnits="userSpaceOnUse" x1="746.5" y1="312.3" x2="696.7" y2="345.8"><stop offset="0" stop-color="#41DFD2"/><stop offset="1" stop-color="#076AAC"/></linearGradient>
<linearGradient id="g2" gradientUnits="userSpaceOnUse" x1="658.3" y1="306.1" x2="547.5" y2="357.2"><stop offset="0" stop-color="#38DDCE"/><stop offset="1" stop-color="#155EA8"/></linearGradient>
<linearGradient id="g3" gradientUnits="userSpaceOnUse" x1="734.4" y1="374.1" x2="699.2" y2="453.9"><stop offset="0" stop-color="#2B97BA"/><stop offset="1" stop-color="#1474B5"/></linearGradient>
<linearGradient id="g4" gradientUnits="userSpaceOnUse" x1="782.2" y1="208.8" x2="709.8" y2="162.1"><stop offset="0" stop-color="#30C0BC"/><stop offset="1" stop-color="#1571B7"/></linearGradient>
<linearGradient id="g5" gradientUnits="userSpaceOnUse" x1="728.8" y1="368.9" x2="703.5" y2="424.1"><stop offset="0" stop-color="#E7B474"/><stop offset="1" stop-color="#E68261"/></linearGradient>
<linearGradient id="g6" gradientUnits="userSpaceOnUse" x1="850.7" y1="271.1" x2="837.8" y2="258.9"><stop offset="0" stop-color="#D49579"/><stop offset="1" stop-color="#E2AA63"/></linearGradient>
<linearGradient id="g7" gradientUnits="userSpaceOnUse" x1="670.3" y1="254.4" x2="658.5" y2="259.6"><stop offset="0" stop-color="#D6956E"/><stop offset="1" stop-color="#E59468"/></linearGradient>
<linearGradient id="g8" gradientUnits="userSpaceOnUse" x1="706.5" y1="259.8" x2="705.1" y2="265.6"><stop offset="0" stop-color="#D79571"/><stop offset="1" stop-color="#D68864"/></linearGradient>
</defs>
<path fill="url(#g0)" d="M 651.0 134.2 C 652.2 134.3 652.7 134.7 653.5 135.6 C 654.3 136.8 654.8 137.9 655.3 139.2 C 658.5 146.4 663.2 153.0 668.3 158.9 C 669.1 159.9 669.8 160.9 670.5 162.0 C 670.8 162.4 671.2 162.8 671.5 163.2 C 671.7 163.5 671.9 163.8 672.1 164.1 C 673.9 166.4 676.0 168.4 678.2 170.2 C 678.4 170.4 678.4 170.4 679.3 171.2 C 681.6 173.3 684.1 175.1 686.5 177.0 C 686.7 177.2 687.0 177.4 687.2 177.6 C 692.5 181.5 698.0 185.1 703.8 188.2 C 704.1 188.4 704.4 188.6 704.7 188.8 C 711.0 192.3 717.4 195.7 724.0 198.8 C 724.2 198.9 724.5 199.0 724.7 199.1 C 728.4 200.8 732.1 202.4 735.8 204.0 C 764.8 216.7 764.8 216.7 777.0 226.8 C 777.5 227.2 778.0 227.6 778.5 228.0 C 788.3 236.0 792.8 248.0 795.3 259.9 C 795.5 260.6 795.6 261.2 795.8 261.9 C 796.1 263.6 796.1 265.2 796.1 267.0 C 796.1 267.3 796.1 267.6 796.1 268.0 C 796.1 270.1 795.9 272.0 795.2 274.0 C 794.7 275.9 794.4 277.7 794.2 279.6 C 793.9 281.6 793.4 283.3 792.6 285.2 C 792.3 285.9 792.1 286.7 791.9 287.5 C 791.4 289.5 790.5 291.2 789.5 293.0 C 789.3 293.4 789.1 293.7 788.9 294.1 C 787.6 296.6 786.2 298.8 784.5 301.0 C 784.3 301.3 784.1 301.6 783.8 301.9 C 782.2 303.9 780.6 305.9 778.8 307.8 C 778.5 308.1 778.2 308.4 777.8 308.7 C 776.1 310.5 774.3 312.1 772.3 313.6 C 770.1 315.3 770.1 315.3 769.8 316.5 C 776.0 315.6 781.9 311.4 786.4 307.3 C 786.9 306.8 787.4 306.4 787.9 306.0 C 788.9 305.1 789.7 304.2 790.5 303.2 C 790.7 303.0 790.9 302.8 791.1 302.5 C 801.0 291.1 804.9 276.7 803.9 261.9 C 803.7 259.6 803.3 257.4 802.9 255.2 C 802.9 254.9 802.8 254.6 802.7 254.3 C 802.6 253.7 802.5 253.1 802.4 252.5 C 802.0 250.6 801.8 249.3 802.8 247.5 C 803.8 246.4 804.9 245.6 806.1 244.7 C 807.6 243.5 808.9 242.3 810.2 241.0 C 812.1 239.4 812.1 239.4 813.0 238.8 C 813.8 238.2 813.8 238.2 814.5 237.3 C 815.5 236.3 816.5 235.3 817.5 234.3 C 819.0 232.8 820.3 231.4 821.2 229.5 C 821.2 228.7 821.2 228.7 821.0 228.0 C 820.0 227.5 819.1 227.2 818.1 226.8 C 814.2 225.3 810.2 223.4 808.0 219.8 C 808.0 218.5 808.0 218.5 808.2 218.2 C 809.6 218.2 810.9 218.3 812.3 218.5 C 820.7 219.8 828.7 217.2 836.7 214.9 C 844.4 212.7 852.4 211.7 859.8 215.8 C 861.9 217.1 864.0 218.7 865.7 220.5 C 867.7 222.4 870.8 222.5 873.4 222.8 C 881.7 223.9 881.7 223.9 884.2 226.5 C 884.2 226.9 884.2 227.3 884.2 227.8 C 883.1 228.4 881.9 228.6 880.6 228.7 C 870.8 229.7 870.8 229.7 867.5 231.2 C 867.3 231.3 867.1 231.4 866.8 231.5 C 857.8 235.6 850.3 241.2 844.2 249.0 C 844.0 249.3 843.8 249.6 843.5 249.9 C 840.0 254.3 837.4 259.1 834.8 264.1 C 834.6 264.6 834.3 265.2 833.9 265.8 C 832.5 268.8 831.1 271.8 829.8 274.8 C 829.7 275.0 829.7 275.0 829.2 276.0 C 828.6 277.2 828.1 278.5 827.5 279.8 C 827.2 280.3 827.0 280.9 826.7 281.5 C 826.6 281.8 826.4 282.1 826.3 282.4 C 826.0 283.1 825.7 283.7 825.4 284.3 C 824.8 285.7 824.3 287.0 823.7 288.3 C 819.4 297.9 814.8 307.4 808.0 315.5 C 807.8 315.7 807.6 316.0 807.4 316.2 C 803.5 321.0 799.1 325.3 794.0 328.8 C 793.6 329.0 793.3 329.2 792.9 329.5 C 791.8 330.3 790.6 331.0 789.5 331.8 C 789.2 331.9 789.0 332.1 788.7 332.3 C 787.9 332.8 787.0 333.3 786.2 333.9 C 785.9 334.1 785.7 334.2 785.4 334.4 C 785.1 334.6 784.9 334.7 784.6 334.9 C 784.4 335.1 784.2 335.2 783.9 335.3 C 781.6 336.8 781.6 336.8 780.0 336.5 C 778.0 335.1 776.5 333.1 774.9 331.3 C 773.0 329.1 771.0 327.1 768.7 325.3 C 768.0 324.7 767.3 324.1 766.6 323.6 C 763.6 321.0 760.2 318.8 756.9 316.6 C 756.0 316.0 756.0 316.0 755.2 315.0 C 755.2 314.0 755.4 313.6 756.0 312.9 C 756.3 312.7 756.5 312.5 756.8 312.2 C 760.6 308.6 762.5 303.7 762.6 298.4 C 762.5 292.8 759.9 288.3 756.2 284.3 C 747.9 276.4 734.1 276.5 723.4 276.0 C 714.4 275.6 704.0 274.3 696.2 269.2 C 696.0 268.8 695.8 268.4 695.5 268.0 C 696.2 267.2 696.2 267.2 697.2 267.2 C 698.2 267.2 699.1 267.4 700.1 267.7 C 702.2 268.3 704.2 268.6 706.4 268.8 C 706.6 268.8 706.6 268.8 707.6 268.9 C 713.5 269.4 719.4 269.6 725.2 269.9 C 727.8 270.0 730.3 270.1 732.9 270.2 C 733.2 270.3 733.5 270.3 733.8 270.3 C 737.0 270.5 740.0 271.2 743.0 272.1 C 743.1 272.2 743.1 272.2 743.8 272.4 C 746.2 273.2 748.4 274.2 750.6 275.3 C 751.7 275.7 752.3 275.9 753.5 275.8 C 753.1 273.6 751.5 272.7 749.8 271.5 C 746.5 269.4 743.0 267.6 739.4 266.0 C 735.6 264.3 735.6 264.3 734.5 263.2 C 734.5 263.1 734.5 262.9 734.5 262.8 C 737.7 261.1 745.1 264.4 748.2 265.5 C 750.0 266.1 751.8 266.9 753.5 267.6 C 754.8 268.1 755.7 268.5 757.0 268.5 C 755.3 264.4 750.2 262.2 746.4 260.6 C 745.1 260.0 743.8 259.5 742.5 259.0 C 742.2 258.9 742.0 258.8 741.7 258.7 C 738.8 257.6 735.9 256.6 732.9 255.8 C 732.6 255.7 732.3 255.6 732.0 255.5 C 728.7 254.7 725.4 253.8 722.1 253.0 C 720.3 252.6 718.6 252.1 716.8 251.7 C 716.7 251.7 716.7 251.7 715.8 251.5 C 706.9 249.2 698.1 246.9 689.8 243.2 C 689.5 243.1 689.3 243.0 689.0 242.9 C 684.7 241.0 680.5 238.6 676.7 235.8 C 675.8 235.1 674.8 234.4 673.9 233.8 C 670.8 231.6 667.8 229.2 665.0 226.5 C 664.8 226.3 664.6 226.1 664.4 225.9 C 663.3 224.8 662.3 223.7 661.3 222.5 C 660.9 221.9 660.5 221.4 660.1 220.9 C 654.4 214.0 644.9 201.5 645.6 191.9 C 645.8 191.2 645.8 191.2 646.5 190.8 C 648.0 190.8 649.1 191.6 650.2 192.5 C 651.0 193.3 651.8 194.1 652.6 195.0 C 653.2 195.8 653.2 195.8 654.2 196.6 C 654.9 197.4 655.4 198.1 655.9 199.0 C 658.6 203.5 663.7 206.7 668.0 209.5 C 668.2 209.7 668.5 209.8 668.8 210.0 C 671.3 211.7 674.0 213.1 676.7 214.6 C 677.2 214.9 677.8 215.1 678.3 215.4 C 687.7 220.5 697.5 224.5 707.6 227.9 C 707.8 228.0 708.1 228.1 708.3 228.2 C 713.0 229.7 713.0 229.7 715.1 230.2 C 716.3 230.4 717.1 230.7 718.0 231.2 C 719.4 232.0 720.8 232.3 722.2 232.8 C 723.1 233.2 723.9 233.6 724.8 234.0 C 725.3 234.2 725.8 234.4 726.3 234.6 C 727.9 235.2 729.4 236.0 731.0 236.8 C 731.9 237.2 732.9 237.6 733.9 238.0 C 735.5 238.6 736.8 239.4 738.2 240.3 C 739.7 241.3 741.2 242.3 742.8 243.2 C 746.7 245.7 746.7 245.7 748.3 247.3 C 749.6 248.5 751.1 249.1 752.8 249.8 C 751.8 246.2 749.2 243.6 746.8 241.0 C 746.5 240.7 746.2 240.5 746.0 240.2 C 740.3 234.4 733.3 230.7 726.1 227.1 C 725.6 226.9 725.1 226.6 724.6 226.4 C 721.6 224.9 718.6 223.4 715.5 222.1 C 713.4 221.1 711.2 220.0 709.1 218.9 C 707.7 218.2 706.3 217.5 704.8 216.9 C 704.1 216.5 703.4 216.2 702.7 215.8 C 702.0 215.5 701.4 215.2 700.7 214.9 C 692.6 211.0 685.1 205.9 678.2 200.0 C 677.9 199.7 677.6 199.4 677.2 199.1 C 674.2 196.5 671.3 193.8 668.8 190.7 C 668.3 190.0 667.7 189.4 667.2 188.8 C 655.4 175.9 650.0 156.8 649.9 139.6 C 649.9 139.2 649.9 138.8 649.8 138.3 C 649.9 137.9 649.9 137.5 649.9 137.1 C 649.9 136.8 649.9 136.5 649.9 136.1 C 650.0 135.2 650.0 135.2 651.0 134.2 Z"/>
<path fill="url(#g1)" d="M 649.8 226.5 C 650.1 226.6 650.4 226.7 650.8 226.8 C 650.8 228.2 650.7 229.5 650.5 231.0 C 649.8 236.6 650.3 242.0 651.5 247.5 C 651.5 247.7 651.5 247.7 651.7 248.6 C 654.1 258.4 661.1 268.2 669.0 274.5 C 669.8 275.2 670.6 275.8 671.4 276.5 C 677.0 281.1 683.0 285.1 689.2 288.8 C 689.5 288.9 689.8 289.1 690.0 289.2 C 693.2 291.1 696.4 292.9 699.8 294.5 C 700.1 294.7 700.5 294.9 700.9 295.1 C 703.8 296.5 706.7 297.8 709.7 299.1 C 711.2 299.7 712.7 300.4 714.2 301.1 C 714.7 301.3 715.1 301.5 715.5 301.7 C 716.8 302.3 718.0 302.9 719.2 303.5 C 719.6 303.7 719.9 303.8 720.3 304.0 C 721.3 304.5 722.3 305.0 723.2 305.5 C 723.5 305.6 723.7 305.7 724.0 305.9 C 725.3 306.6 726.5 307.3 727.7 308.2 C 729.8 309.8 732.0 311.1 734.2 312.4 C 738.7 314.9 743.0 317.7 747.2 320.5 C 747.6 320.8 748.0 321.0 748.5 321.3 C 751.2 323.1 753.8 325.0 756.4 327.1 C 757.2 327.6 758.0 328.2 758.7 328.8 C 763.6 332.5 768.2 336.7 772.0 341.5 C 772.2 341.7 772.4 342.0 772.6 342.2 C 777.3 348.2 781.5 355.2 783.8 362.5 C 783.8 362.7 783.8 362.7 784.1 363.5 C 784.3 364.2 784.5 364.9 784.7 365.6 C 784.9 366.3 785.2 367.0 785.4 367.6 C 786.9 371.9 786.3 377.4 786.4 381.9 C 786.4 382.5 786.4 383.1 786.5 383.7 C 786.6 388.2 786.5 392.3 784.8 396.5 C 784.6 397.0 784.6 397.6 784.5 398.1 C 782.4 409.4 774.7 419.7 766.8 427.6 C 766.4 427.9 766.1 428.2 765.8 428.6 C 764.0 430.3 762.4 432.0 760.2 433.2 C 758.9 433.1 758.9 433.1 758.5 432.8 C 758.6 431.3 759.0 430.5 759.8 429.3 C 761.0 427.3 762.0 425.3 763.0 423.2 C 763.1 423.0 763.3 422.7 763.4 422.5 C 768.8 410.6 769.3 396.8 764.9 384.6 C 762.5 378.5 759.3 373.0 755.0 368.0 C 754.9 367.9 754.9 367.9 754.2 367.1 C 750.6 363.0 746.7 359.1 742.2 356.0 C 741.7 355.6 741.1 355.1 740.5 354.7 C 738.2 353.0 735.8 351.4 733.5 349.7 C 732.8 349.3 732.1 348.8 731.5 348.4 C 728.8 346.5 726.0 344.7 723.2 343.0 C 722.8 342.7 722.4 342.5 722.0 342.2 C 719.0 340.3 716.0 338.5 713.0 336.8 C 712.8 336.6 712.5 336.5 712.3 336.3 C 710.0 335.0 707.8 333.6 705.5 332.4 C 701.9 330.4 698.5 328.2 695.0 326.1 C 694.1 325.5 693.2 324.9 692.3 324.3 C 689.4 322.5 686.5 320.7 683.8 318.8 C 683.4 318.5 683.0 318.2 682.7 318.0 C 680.4 316.3 678.1 314.6 675.9 312.9 C 674.8 312.0 673.7 311.2 672.6 310.3 C 669.8 308.2 667.2 306.0 664.8 303.5 C 664.4 303.2 664.1 302.9 663.7 302.6 C 662.7 301.7 661.9 300.8 661.0 299.8 C 660.8 299.6 660.8 299.6 660.0 298.8 C 658.8 297.6 657.8 296.3 656.8 295.0 C 656.5 294.7 656.3 294.4 656.1 294.2 C 649.0 285.1 644.3 274.1 642.8 262.8 C 642.7 262.4 642.7 262.1 642.6 261.7 C 641.6 250.3 643.6 237.1 649.2 227.0 C 649.4 226.8 649.6 226.7 649.8 226.5 Z"/>
<path fill="url(#g2)" d="M 616.8 260.5 C 620.5 262.4 623.3 265.2 624.7 269.1 C 625.0 270.0 625.0 270.0 625.7 271.2 C 626.3 272.7 626.7 274.1 627.0 275.6 C 627.2 276.4 627.3 277.1 627.5 277.8 C 628.2 280.3 628.3 282.5 628.2 285.1 C 628.3 286.7 628.7 288.0 629.2 289.5 C 630.2 292.6 630.5 295.7 630.5 298.9 C 630.4 300.7 630.6 302.0 631.2 303.6 C 632.3 307.3 632.6 311.5 632.5 315.4 C 632.4 318.0 632.5 320.1 633.4 322.5 C 634.5 326.3 635.0 330.5 634.7 334.4 C 634.8 335.2 634.8 335.2 635.1 336.5 C 635.5 337.9 635.7 339.3 635.9 340.8 C 635.9 341.0 636.0 341.3 636.0 341.6 C 636.1 342.1 636.2 342.7 636.2 343.2 C 636.3 344.1 636.5 345.0 636.6 345.8 C 636.9 348.0 637.1 350.2 637.4 352.4 C 639.5 368.2 639.5 368.2 640.8 370.8 C 641.1 370.8 641.4 370.9 641.8 371.0 C 642.3 369.3 642.7 367.7 643.1 365.9 C 643.2 365.4 643.3 364.8 643.4 364.3 C 643.4 364.0 643.5 363.7 643.6 363.4 C 644.5 358.4 645.6 353.4 646.8 348.5 C 646.9 348.2 646.9 348.2 647.1 347.0 C 648.8 340.6 651.0 335.2 655.8 330.5 C 655.9 330.3 656.1 330.1 656.4 329.9 C 660.6 325.8 666.8 324.7 672.4 324.4 C 676.2 324.7 679.5 326.8 682.5 329.0 C 683.9 330.1 685.5 331.0 687.0 331.9 C 688.0 332.5 688.0 332.5 689.0 333.5 C 689.0 333.8 689.0 334.2 689.0 334.5 C 687.2 335.6 685.3 335.5 683.3 335.5 C 682.6 335.5 681.9 335.5 681.2 335.5 C 680.2 335.5 679.2 335.5 678.1 335.5 C 666.4 335.4 666.4 335.4 663.7 337.3 C 661.3 339.7 660.3 342.5 659.4 345.6 C 659.0 346.6 658.7 347.5 658.2 348.5 C 658.0 349.5 658.0 350.4 657.9 351.4 C 657.9 352.7 657.6 353.6 657.1 354.8 C 656.4 356.5 656.4 357.9 656.3 359.7 C 656.2 361.6 655.8 363.7 654.9 365.5 C 654.4 366.7 654.4 367.8 654.3 369.1 C 654.2 370.6 653.8 372.1 653.5 373.6 C 653.4 373.9 653.3 374.2 653.2 374.6 C 650.2 387.1 650.2 387.1 645.7 390.6 C 643.4 391.9 641.6 392.3 639.0 391.7 C 635.5 390.4 633.8 387.5 632.2 384.2 C 628.2 373.9 627.1 362.6 625.7 351.6 C 625.4 349.7 625.2 347.8 624.9 345.9 C 624.8 344.6 624.6 343.3 624.4 342.0 C 624.3 341.2 624.2 340.5 624.1 339.7 C 624.1 339.3 624.0 338.9 624.0 338.5 C 623.7 336.6 623.4 334.6 623.1 332.7 C 622.7 330.1 622.4 327.6 622.1 325.0 C 622.0 324.6 622.0 324.2 621.9 323.7 C 621.6 321.0 621.4 318.3 621.3 315.6 C 621.3 314.6 621.1 313.9 620.8 313.0 C 620.7 312.4 620.6 311.9 620.5 311.3 C 620.4 311.0 620.4 310.6 620.4 310.3 C 620.3 310.0 620.3 309.6 620.2 309.3 C 620.2 308.9 620.1 308.6 620.1 308.3 C 620.0 307.6 619.9 307.0 619.9 306.3 C 619.8 305.7 619.7 305.0 619.6 304.4 C 619.5 303.3 619.5 302.3 619.6 301.3 C 619.6 299.2 619.2 297.5 618.6 295.5 C 617.9 293.3 617.7 291.0 617.7 288.7 C 617.6 286.6 617.1 285.3 616.0 283.5 C 615.6 283.6 615.2 283.7 614.8 283.8 C 614.2 284.9 614.2 285.4 614.3 286.7 C 614.3 289.5 613.9 291.9 612.8 294.4 C 612.1 296.3 612.2 298.1 612.2 300.2 C 612.3 302.9 612.0 305.3 611.0 307.8 C 610.2 309.8 610.2 311.7 610.2 313.9 C 610.3 316.8 610.0 319.7 609.1 322.5 C 608.8 323.6 608.7 324.4 608.7 325.5 C 608.5 328.7 607.9 331.9 607.4 335.1 C 607.2 336.2 607.0 337.4 606.9 338.5 C 606.6 340.4 606.2 342.2 605.9 344.1 C 605.8 344.3 605.8 344.6 605.7 344.9 C 605.5 345.9 605.3 346.9 605.0 347.9 C 604.7 349.1 604.5 350.3 604.3 351.5 C 603.2 358.4 601.1 367.2 595.2 371.5 C 593.0 372.6 591.2 372.8 588.9 372.1 C 585.5 370.8 583.5 368.0 582.0 364.9 C 581.3 363.4 580.8 361.9 580.2 360.4 C 580.1 360.1 580.0 359.8 579.9 359.5 C 577.9 354.0 577.0 348.1 575.9 342.3 C 575.7 341.5 575.6 340.7 575.4 339.9 C 574.1 333.4 574.1 333.4 573.5 330.4 C 572.8 326.6 572.0 322.8 571.1 319.1 C 571.0 318.9 571.0 318.9 570.8 318.0 C 569.5 312.7 569.5 312.7 568.5 311.8 C 568.1 311.8 567.7 311.8 567.2 311.8 C 566.9 312.7 566.5 313.7 566.1 314.7 C 563.2 322.4 560.0 329.9 552.2 333.6 C 548.2 335.3 544.3 335.3 540.1 335.2 C 539.7 335.2 539.2 335.2 538.7 335.2 C 537.7 335.2 536.7 335.2 535.7 335.2 C 534.5 335.2 533.2 335.2 531.9 335.2 C 530.7 335.2 529.5 335.1 528.3 335.1 C 527.9 335.1 527.4 335.1 526.9 335.1 C 526.5 335.1 526.1 335.1 525.7 335.1 C 525.3 335.1 524.9 335.1 524.5 335.1 C 522.9 334.9 521.8 334.6 520.7 333.4 C 519.7 332.0 519.4 331.0 519.5 329.2 C 519.9 327.5 520.3 326.4 521.8 325.2 C 526.0 323.5 532.0 324.5 536.5 324.5 C 537.4 324.5 538.4 324.5 539.4 324.5 C 539.5 324.5 539.5 324.5 540.3 324.6 C 543.9 324.6 547.1 324.1 549.9 321.7 C 552.9 318.1 554.2 313.9 555.5 309.5 C 557.0 304.4 558.9 299.5 563.5 296.4 C 565.9 295.1 568.0 294.9 570.6 295.7 C 575.7 297.9 577.9 302.1 579.9 307.0 C 583.2 316.0 584.6 326.0 586.2 335.4 C 586.9 339.9 587.9 344.4 589.0 348.9 C 589.1 349.2 589.2 349.6 589.3 349.9 C 589.4 350.2 589.4 350.5 589.5 350.9 C 589.6 351.1 589.7 351.4 589.8 351.7 C 590.0 352.5 590.3 353.3 590.8 354.0 C 591.1 354.0 591.4 354.0 591.8 354.0 C 592.4 352.8 592.7 351.6 593.0 350.2 C 593.0 349.8 593.1 349.4 593.2 349.0 C 593.2 348.8 593.2 348.8 593.5 347.7 C 593.5 347.5 593.5 347.5 593.7 346.4 C 595.4 337.5 596.6 328.6 597.9 319.6 C 598.2 317.2 598.5 314.9 598.9 312.5 C 599.4 308.7 599.9 304.9 600.4 301.2 C 603.0 280.2 603.0 280.2 604.9 275.8 C 605.3 274.9 605.4 274.0 605.6 273.0 C 605.9 271.2 606.3 269.9 607.3 268.4 C 607.8 267.8 607.8 267.8 608.2 266.3 C 609.4 263.5 611.6 261.9 614.2 260.5 C 615.2 260.2 615.8 260.3 616.8 260.5 Z"/>
<path fill="url(#g3)" d="M 740.2 367.0 C 742.2 367.0 742.9 367.9 744.2 369.2 C 744.5 369.5 744.8 369.7 745.0 370.0 C 747.0 371.9 748.6 373.8 750.2 376.0 C 750.3 376.1 750.3 376.1 750.8 376.7 C 757.7 385.9 759.8 397.9 758.6 409.2 C 756.8 421.0 750.0 431.8 740.5 439.0 C 740.3 439.2 740.0 439.4 739.8 439.6 C 729.5 447.9 715.4 451.6 702.4 451.6 C 702.1 451.6 702.1 451.6 701.0 451.6 C 685.4 451.4 671.2 446.3 658.3 437.7 C 658.0 437.5 657.7 437.4 657.4 437.2 C 654.9 435.5 652.6 433.6 650.4 431.6 C 649.9 431.1 649.3 430.6 648.8 430.2 C 646.4 428.0 644.1 425.8 642.1 423.2 C 641.5 422.5 640.8 421.7 640.2 421.0 C 638.8 419.3 637.5 417.5 636.3 415.6 C 636.2 415.5 636.2 415.5 635.6 414.7 C 629.7 405.7 629.7 405.7 630.2 403.0 C 630.7 402.9 631.1 402.8 631.5 402.8 C 632.6 403.6 633.5 404.5 634.4 405.6 C 636.4 407.8 638.5 409.9 640.8 411.8 C 641.0 412.0 641.2 412.2 641.5 412.4 C 651.7 421.5 664.4 426.6 677.6 429.6 C 677.8 429.6 678.1 429.7 678.4 429.8 C 692.9 432.9 709.2 430.7 721.8 422.7 C 725.1 420.5 728.4 418.1 731.0 415.0 C 731.2 414.8 731.4 414.5 731.6 414.3 C 735.3 410.0 738.3 405.4 740.0 400.0 C 740.4 399.2 740.8 398.5 741.2 397.8 C 741.5 396.6 741.6 395.5 741.7 394.3 C 741.9 392.7 742.1 391.1 742.3 389.4 C 742.8 385.2 742.6 381.1 742.0 376.9 C 741.9 376.6 741.9 376.3 741.8 376.0 C 741.5 374.1 741.0 372.4 740.1 370.7 C 739.6 369.8 739.5 369.0 739.5 368.0 C 739.6 367.8 739.6 367.8 740.2 367.0 Z"/>
<path fill="url(#g4)" d="M 721.5 138.0 C 722.7 139.2 722.9 140.7 723.3 142.4 C 725.5 151.1 729.4 159.8 735.2 166.8 C 735.5 167.0 735.7 167.3 736.0 167.6 C 737.4 169.3 738.9 170.9 740.4 172.5 C 740.9 173.2 741.5 173.8 742.0 174.5 C 743.1 175.9 744.3 177.1 745.5 178.3 C 745.6 178.4 745.6 178.4 746.1 178.9 C 747.3 180.1 748.5 181.2 749.8 182.2 C 750.4 182.8 751.0 183.3 751.6 183.9 C 753.1 185.3 754.7 186.6 756.2 187.9 C 757.4 188.8 758.5 189.7 759.6 190.7 C 762.1 192.7 764.6 194.7 767.1 196.7 C 768.9 198.1 770.6 199.5 772.3 201.1 C 772.9 201.6 773.5 202.1 774.1 202.7 C 775.8 204.2 777.5 205.9 779.0 207.8 C 779.2 208.0 779.4 208.2 779.7 208.4 C 781.9 210.9 783.4 213.6 784.9 216.6 C 785.5 217.7 786.2 218.9 786.9 220.0 C 787.3 220.9 787.4 221.6 787.5 222.5 C 786.3 222.0 785.6 221.5 784.6 220.7 C 783.8 220.1 783.0 219.6 782.2 219.1 C 780.2 218.0 778.3 216.6 776.5 215.3 C 766.1 208.0 754.3 202.8 742.8 197.6 C 739.5 196.1 736.2 194.7 732.9 193.1 C 732.1 192.8 731.3 192.4 730.5 192.1 C 727.2 190.6 725.0 189.2 723.2 186.0 C 723.1 185.7 722.9 185.4 722.8 185.1 C 716.5 173.1 714.4 159.4 717.0 146.0 C 717.1 145.5 717.2 145.0 717.2 144.5 C 718.3 138.0 718.3 138.0 721.5 138.0 Z"/>
<path fill="url(#g5)" d="M 720.2 360.8 C 723.1 361.3 724.9 364.2 726.5 366.5 C 731.7 374.4 733.6 383.9 731.8 393.2 C 730.5 398.1 728.3 402.9 725.0 406.8 C 724.8 407.0 724.6 407.2 724.5 407.4 C 718.3 414.5 709.8 418.2 700.5 419.2 C 692.1 419.6 682.3 418.0 675.7 412.3 C 675.0 411.5 675.0 411.5 675.0 410.5 C 676.5 410.2 677.0 410.4 678.4 410.9 C 688.1 413.9 698.2 413.5 707.3 408.8 C 710.1 407.2 712.4 405.2 714.8 403.0 C 715.0 402.7 715.3 402.5 715.7 402.2 C 718.6 398.9 721.0 394.9 722.5 390.8 C 722.6 390.6 722.6 390.6 722.8 389.9 C 724.5 385.3 724.8 380.1 724.2 375.2 C 724.2 374.9 724.2 374.5 724.1 374.1 C 723.6 370.0 722.1 366.3 720.3 362.5 C 720.0 361.8 720.0 361.8 720.2 360.8 Z"/>
<path fill="url(#g6)" d="M 869.8 233.0 C 869.8 233.3 869.9 233.7 870.0 234.0 C 869.5 234.5 869.5 234.5 868.9 235.1 C 868.6 235.4 868.4 235.6 868.1 235.8 C 867.0 236.7 865.8 237.6 864.6 238.6 C 863.3 239.6 862.0 240.8 860.8 242.0 C 860.5 242.2 860.3 242.4 860.0 242.7 C 858.3 244.4 856.7 246.3 855.2 248.2 C 855.0 248.5 854.8 248.8 854.6 249.1 C 852.6 251.8 851.1 254.6 849.6 257.6 C 847.4 261.6 845.4 264.0 841.5 266.2 C 836.3 269.5 834.2 276.7 831.8 282.0 C 830.1 285.6 828.4 289.2 826.6 292.8 C 826.2 293.5 825.9 294.3 825.5 295.0 C 819.7 306.9 819.7 306.9 815.2 311.2 C 814.9 311.3 814.6 311.4 814.2 311.5 C 814.4 310.3 814.7 309.4 815.3 308.4 C 815.5 308.0 815.7 307.7 815.9 307.4 C 816.3 306.6 816.7 305.9 817.1 305.1 C 820.7 298.8 823.8 292.2 826.7 285.5 C 827.2 284.3 827.8 283.0 828.4 281.7 C 828.5 281.5 828.6 281.2 828.7 281.0 C 829.3 279.7 829.9 278.4 830.5 277.1 C 830.6 277.0 830.6 277.0 830.9 276.3 C 831.1 275.7 831.4 275.2 831.6 274.6 C 832.2 273.4 832.8 272.1 833.4 270.8 C 834.6 268.2 835.8 265.6 837.1 263.1 C 837.5 262.4 837.9 261.7 838.3 260.9 C 840.5 256.7 843.2 252.9 846.2 249.2 C 846.5 249.0 846.7 248.7 847.0 248.4 C 849.6 245.2 852.5 242.2 855.8 239.8 C 855.9 239.7 855.9 239.7 856.5 239.1 C 860.0 236.6 865.2 232.7 869.8 233.0 Z"/>
<path fill="url(#g7)" d="M 653.0 229.8 C 654.2 230.0 654.2 230.0 654.7 230.6 C 655.1 231.8 655.3 233.0 655.5 234.3 C 655.6 234.8 655.7 235.4 655.7 235.9 C 655.8 236.2 655.8 236.4 655.9 236.7 C 658.0 249.9 664.5 261.4 674.0 270.8 C 674.3 271.1 674.5 271.4 674.8 271.7 C 675.7 272.7 676.6 273.6 677.6 274.5 C 678.0 274.8 678.3 275.2 678.7 275.5 C 679.0 275.8 679.4 276.2 679.8 276.5 C 680.1 276.8 680.5 277.2 680.9 277.5 C 681.0 277.7 681.0 277.7 681.9 278.5 C 682.2 278.8 682.6 279.2 682.9 279.5 C 683.4 279.9 683.9 280.4 684.5 280.8 C 685.0 281.2 685.0 281.2 685.5 282.0 C 685.5 282.2 685.5 282.5 685.5 282.8 C 680.6 282.2 675.9 277.8 672.2 274.8 C 672.0 274.6 671.8 274.4 671.5 274.2 C 669.7 272.7 668.0 271.1 666.2 269.5 C 666.0 269.3 665.8 269.1 665.6 268.9 C 664.0 267.3 662.6 265.6 661.2 263.8 C 661.2 263.6 661.2 263.6 660.7 263.0 C 654.8 255.6 652.0 247.1 652.0 237.6 C 652.0 237.3 651.9 237.0 651.9 236.6 C 651.9 231.3 651.9 231.3 653.0 229.8 Z"/>
<path fill="url(#g8)" d="M 680.0 254.2 C 681.7 254.1 682.9 254.5 684.5 255.2 C 684.7 255.2 685.0 255.3 685.2 255.4 C 686.2 255.8 687.2 256.2 688.2 256.7 C 692.9 258.5 698.1 259.8 703.0 260.2 C 705.6 260.5 708.2 260.9 710.8 261.3 C 712.5 261.5 714.2 261.8 716.0 262.0 C 720.2 262.5 724.3 263.3 728.5 264.5 C 728.6 264.5 728.6 264.5 729.4 264.7 C 729.7 264.8 730.0 264.9 730.2 265.0 C 730.5 265.1 730.8 265.1 731.0 265.2 C 731.8 265.5 732.4 265.9 733.0 266.5 C 732.8 266.8 732.7 267.2 732.5 267.5 C 730.5 267.9 728.5 267.7 726.5 267.6 C 724.5 267.6 722.5 267.5 720.4 267.5 C 710.5 267.6 700.8 266.1 691.5 262.5 C 691.3 262.4 691.0 262.3 690.7 262.2 C 686.8 260.7 683.0 258.8 680.0 255.8 C 679.8 254.8 679.8 254.8 680.0 254.2 Z"/>
</svg>
